<svg height="512pt" viewBox="-103 0 512 512.00112" width="512pt" xmlns="http://www.w3.org/2000/svg"><path d="m172.914062 512h-38.902343c-17.597657 0-32.863281-11.921875-37.128907-28.988281l-2.902343-11.605469c-.640625-2.550781-.066407-5.246094 1.554687-7.320312 1.621094-2.074219 4.09375-3.285157 6.722656-3.285157h102.398438c2.628906 0 5.113281 1.210938 6.726562 3.285157 1.613282 2.074218 2.191407 4.769531 1.550782 7.320312l-2.898438 11.605469c-4.257812 17.066406-19.523437 28.988281-37.121094 28.988281zm-59.714843-34.132812.253906 1.007812c2.363281 9.453125 10.820313 16.058594 20.566406 16.058594h38.902344c9.746094 0 18.203125-6.605469 20.566406-16.058594l.246094-1.007812zm0 0"/><path d="m204.742188 477.867188h-102.398438c-14.113281 0-25.601562-11.484376-25.601562-25.597657v-68.269531c0-4.710938 3.824218-8.53125 8.535156-8.53125h136.53125c4.710937 0 8.535156 3.820312 8.535156 8.53125v68.269531c0 14.113281-11.484375 25.597657-25.601562 25.597657zm-110.933594-85.332032v59.734375c0 4.699219 3.824218 8.53125 8.535156 8.53125h102.398438c4.710937 0 8.535156-3.832031 8.535156-8.53125v-59.734375zm0 0"/><path d="m221.808594 392.535156h-136.53125c-1.871094 0-3.679688-.613281-5.164063-1.742187-20.582031-15.648438-28.96875-42.339844-28.96875-92.125 0-25.292969-23.851562-73.320313-33.042969-89.683594-31.085937-67.925781-16.375-114.945313 1.375-142.535156 26.4375-41.078125 78.148438-66.644531 134.007813-66.449219l.222656 8.535156-.019531-8.535156h.308594c56.105468 0 107.316406 25.4375 133.699218 66.449219 17.757813 27.589843 32.460938 74.609375 1.699219 141.902343-.648437 1.21875-33.355469 59.871094-33.355469 90.316407 0 49.730469-8.425781 76.425781-29.066406 92.125-1.484375 1.128906-3.300781 1.742187-5.164062 1.742187zm-133.511719-17.066406h130.476563c14.308593-12.46875 20.1875-35.097656 20.1875-76.800781 0-34.894531 33.785156-95.480469 35.226562-98.046875 21.496094-47.089844 21.316406-90.503906-.84375-124.945313-23.269531-36.15625-68.984375-58.609375-119.347656-58.609375-.171875 0-.332032 0-.460938 0-.09375 0-.195312 0-.300781 0-50.4375 0-96.144531 22.445313-119.414063 58.609375-22.160156 34.441407-22.339843 77.855469-.527343 125.566407 1.125 1.945312 34.917969 62.53125 34.917969 97.425781 0 41.746093 5.851562 64.375 20.085937 76.800781zm-32.988281-277.34375c-1.578125 0-3.175782-.433594-4.609375-1.355469-3.96875-2.542969-5.109375-7.824219-2.566407-11.792969 19.839844-30.882812 61.078126-50.84375 105.050782-50.84375 4.710937 0 8.535156 3.824219 8.535156 8.535157 0 4.710937-3.824219 8.53125-8.535156 8.53125-38.3125 0-73.914063 16.878906-90.691406 43.011719-1.628907 2.53125-4.378907 3.914062-7.183594 3.914062zm0 0"/><path d="m187.761719 281.601562h-68.265625c-4.710938 0-8.535156-3.824218-8.535156-8.535156 0-4.710937 3.824218-8.53125 8.535156-8.53125h68.265625c4.710937 0 8.535156 3.820313 8.535156 8.53125 0 4.710938-3.816406 8.535156-8.535156 8.535156zm0 0"/><path d="m187.761719 315.734375h-68.265625c-4.710938 0-8.535156-3.824219-8.535156-8.535156 0-4.707031 3.824218-8.53125 8.535156-8.53125h68.265625c4.710937 0 8.535156 3.824219 8.535156 8.53125 0 4.710937-3.816406 8.535156-8.535156 8.535156zm0 0"/><path d="m187.761719 349.867188h-68.265625c-4.710938 0-8.535156-3.824219-8.535156-8.53125 0-4.710938 3.824218-8.535157 8.535156-8.535157h68.265625c4.710937 0 8.535156 3.824219 8.535156 8.535157 0 4.707031-3.816406 8.53125-8.535156 8.53125zm0 0"/></svg>